{
    "asset" : {
        "generator" : "Khronos glTF Blender I/O v1.7.33",
        "version" : "2.0"
    },
    "scene" : 0,
    "scenes" : [
        {
            "name" : "Scene",
            "nodes" : [
                0,
                1,
                2,
                3,
                4
            ]
        }
    ],
    "nodes" : [
        {
            "mesh" : 0,
            "name" : "Cube.002",
            "translation" : [
                0,
                3.950906991958618,
                0
            ]
        },
        {
            "mesh" : 1,
            "name" : "Cube.003",
            "translation" : [
                0,
                3.950906991958618,
                0
            ]
        },
        {
            "mesh" : 2,
            "name" : "Cube.004",
            "scale" : [
                0.4162934720516205,
                0.3104418218135834,
                0.029457930475473404
            ],
            "translation" : [
                0,
                4.140470504760742,
                -1.0475889444351196
            ]
        },
        {
            "mesh" : 3,
            "name" : "Plane.001",
            "rotation" : [
                0.7071068286895752,
                0,
                0,
                0.7071068286895752
            ],
            "scale" : [
                0.09879159927368164,
                0.09879159927368164,
                0.017918411642313004
            ],
            "translation" : [
                -0.006348669528961182,
                3.5498523712158203,
                -0.9923832416534424
            ]
        },
        {
            "mesh" : 4,
            "name" : "Cube.005",
            "translation" : [
                0,
                3.950906991958618,
                0
            ]
        }
    ],
    "materials" : [
        {
            "doubleSided" : true,
            "name" : "Material.003",
            "pbrMetallicRoughness" : {
                "baseColorFactor" : [
                    0.04720509052276611,
                    0.012538398616015911,
                    0.005314716137945652,
                    1
                ],
                "metallicFactor" : 0,
                "roughnessFactor" : 0.7018348574638367
            }
        },
        {
            "doubleSided" : true,
            "name" : "Material.002",
            "pbrMetallicRoughness" : {
                "baseColorFactor" : [
                    0.8000000715255737,
                    0.581186830997467,
                    0.4001005291938782,
                    1
                ],
                "metallicFactor" : 0,
                "roughnessFactor" : 0.5
            }
        },
        {
            "doubleSided" : true,
            "name" : "Material.001",
            "pbrMetallicRoughness" : {
                "baseColorFactor" : [
                    0,
                    0,
                    0,
                    1
                ],
                "metallicFactor" : 0,
                "roughnessFactor" : 0.21559633314609528
            }
        },
        {
            "doubleSided" : true,
            "name" : "skin tone dark",
            "pbrMetallicRoughness" : {
                "baseColorFactor" : [
                    0.8000000715255737,
                    0.46910160779953003,
                    0.28032252192497253,
                    1
                ],
                "metallicFactor" : 0,
                "roughnessFactor" : 0.5
            }
        }
    ],
    "meshes" : [
        {
            "name" : "Cube.002",
            "primitives" : [
                {
                    "attributes" : {
                        "POSITION" : 0,
                        "NORMAL" : 1,
                        "TEXCOORD_0" : 2
                    },
                    "indices" : 3,
                    "material" : 0
                },
                {
                    "attributes" : {
                        "POSITION" : 4,
                        "NORMAL" : 5,
                        "TEXCOORD_0" : 6
                    },
                    "indices" : 7,
                    "material" : 1
                },
                {
                    "attributes" : {
                        "POSITION" : 8,
                        "NORMAL" : 9,
                        "TEXCOORD_0" : 10
                    },
                    "indices" : 11,
                    "material" : 2
                },
                {
                    "attributes" : {
                        "POSITION" : 12,
                        "NORMAL" : 13,
                        "TEXCOORD_0" : 14
                    },
                    "indices" : 15,
                    "material" : 3
                }
            ]
        },
        {
            "name" : "Cube.003",
            "primitives" : [
                {
                    "attributes" : {
                        "POSITION" : 16,
                        "NORMAL" : 17,
                        "TEXCOORD_0" : 18
                    },
                    "indices" : 19,
                    "material" : 1
                }
            ]
        },
        {
            "name" : "Cube.004",
            "primitives" : [
                {
                    "attributes" : {
                        "POSITION" : 20,
                        "NORMAL" : 21,
                        "TEXCOORD_0" : 22
                    },
                    "indices" : 23,
                    "material" : 2
                }
            ]
        },
        {
            "name" : "Plane.001",
            "primitives" : [
                {
                    "attributes" : {
                        "POSITION" : 24,
                        "NORMAL" : 25,
                        "TEXCOORD_0" : 26
                    },
                    "indices" : 27,
                    "material" : 3
                }
            ]
        },
        {
            "name" : "Cube.005",
            "primitives" : [
                {
                    "attributes" : {
                        "POSITION" : 28,
                        "NORMAL" : 29,
                        "TEXCOORD_0" : 30
                    },
                    "indices" : 31,
                    "material" : 0
                }
            ]
        }
    ],
    "accessors" : [
        {
            "bufferView" : 0,
            "componentType" : 5126,
            "count" : 3592,
            "max" : [
                1.1052181720733643,
                0.9962143898010254,
                1.1539446115493774
            ],
            "min" : [
                -1.1052181720733643,
                -0.22687235474586487,
                -1.026448369026184
            ],
            "type" : "VEC3"
        },
        {
            "bufferView" : 1,
            "componentType" : 5126,
            "count" : 3592,
            "type" : "VEC3"
        },
        {
            "bufferView" : 2,
            "componentType" : 5126,
            "count" : 3592,
            "type" : "VEC2"
        },
        {
            "bufferView" : 3,
            "componentType" : 5123,
            "count" : 5760,
            "type" : "SCALAR"
        },
        {
            "bufferView" : 4,
            "componentType" : 5126,
            "count" : 2272,
            "max" : [
                0.9575076699256897,
                0.9848766922950745,
                1
            ],
            "min" : [
                -0.9575076699256897,
                -0.7028304934501648,
                -1.1186720132827759
            ],
            "type" : "VEC3"
        },
        {
            "bufferView" : 5,
            "componentType" : 5126,
            "count" : 2272,
            "type" : "VEC3"
        },
        {
            "bufferView" : 6,
            "componentType" : 5126,
            "count" : 2272,
            "type" : "VEC2"
        },
        {
            "bufferView" : 7,
            "componentType" : 5123,
            "count" : 3408,
            "type" : "SCALAR"
        },
        {
            "bufferView" : 8,
            "componentType" : 5126,
            "count" : 310,
            "max" : [
                1.0162934064865112,
                0.5000053644180298,
                0.11820864677429199
            ],
            "min" : [
                -1.0162934064865112,
                -0.12087830901145935,
                -1.0770468711853027
            ],
            "type" : "VEC3"
        },
        {
            "bufferView" : 9,
            "componentType" : 5126,
            "count" : 310,
            "type" : "VEC3"
        },
        {
            "bufferView" : 10,
            "componentType" : 5126,
            "count" : 310,
            "type" : "VEC2"
        },
        {
            "bufferView" : 11,
            "componentType" : 5123,
            "count" : 594,
            "type" : "SCALAR"
        },
        {
            "bufferView" : 12,
            "componentType" : 5126,
            "count" : 88,
            "max" : [
                0.20657996833324432,
                -0.3106256127357483,
                -0.9923832416534424
            ],
            "min" : [
                -0.3683268427848816,
                -0.41897302865982056,
                -1.0244851112365723
            ],
            "type" : "VEC3"
        },
        {
            "bufferView" : 13,
            "componentType" : 5126,
            "count" : 88,
            "type" : "VEC3"
        },
        {
            "bufferView" : 14,
            "componentType" : 5126,
            "count" : 88,
            "type" : "VEC2"
        },
        {
            "bufferView" : 15,
            "componentType" : 5123,
            "count" : 156,
            "type" : "SCALAR"
        },
        {
            "bufferView" : 16,
            "componentType" : 5126,
            "count" : 230,
            "max" : [
                4.371138828673793e-08,
                1,
                1
            ],
            "min" : [
                -2.171945095062256,
                -4.1110758781433105,
                -1.154766321182251
            ],
            "type" : "VEC3"
        },
        {
            "bufferView" : 17,
            "componentType" : 5126,
            "count" : 230,
            "type" : "VEC3"
        },
        {
            "bufferView" : 18,
            "componentType" : 5126,
            "count" : 230,
            "type" : "VEC2"
        },
        {
            "bufferView" : 19,
            "componentType" : 5123,
            "count" : 357,
            "type" : "SCALAR"
        },
        {
            "bufferView" : 20,
            "componentType" : 5126,
            "count" : 148,
            "max" : [
                2.441290855407715,
                1,
                39.57500076293945
            ],
            "min" : [
                2.9802322387695312e-08,
                -1,
                -1
            ],
            "type" : "VEC3"
        },
        {
            "bufferView" : 21,
            "componentType" : 5126,
            "count" : 148,
            "type" : "VEC3"
        },
        {
            "bufferView" : 22,
            "componentType" : 5126,
            "count" : 148,
            "type" : "VEC2"
        },
        {
            "bufferView" : 23,
            "componentType" : 5123,
            "count" : 300,
            "type" : "SCALAR"
        },
        {
            "bufferView" : 24,
            "componentType" : 5126,
            "count" : 94,
            "max" : [
                2.1553313732147217,
                0,
                1
            ],
            "min" : [
                -3.664058208465576,
                -0.3249455690383911,
                -5.046709060668945
            ],
            "type" : "VEC3"
        },
        {
            "bufferView" : 25,
            "componentType" : 5126,
            "count" : 94,
            "type" : "VEC3"
        },
        {
            "bufferView" : 26,
            "componentType" : 5126,
            "count" : 94,
            "type" : "VEC2"
        },
        {
            "bufferView" : 27,
            "componentType" : 5123,
            "count" : 156,
            "type" : "SCALAR"
        },
        {
            "bufferView" : 28,
            "componentType" : 5126,
            "count" : 134,
            "max" : [
                0,
                1.0118306875228882,
                1.15814208984375
            ],
            "min" : [
                -1.2317315340042114,
                -0.22687235474586487,
                -1.0264482498168945
            ],
            "type" : "VEC3"
        },
        {
            "bufferView" : 29,
            "componentType" : 5126,
            "count" : 134,
            "type" : "VEC3"
        },
        {
            "bufferView" : 30,
            "componentType" : 5126,
            "count" : 134,
            "type" : "VEC2"
        },
        {
            "bufferView" : 31,
            "componentType" : 5123,
            "count" : 204,
            "type" : "SCALAR"
        }
    ],
    "bufferViews" : [
        {
            "buffer" : 0,
            "byteLength" : 43104,
            "byteOffset" : 0
        },
        {
            "buffer" : 0,
            "byteLength" : 43104,
            "byteOffset" : 43104
        },
        {
            "buffer" : 0,
            "byteLength" : 28736,
            "byteOffset" : 86208
        },
        {
            "buffer" : 0,
            "byteLength" : 11520,
            "byteOffset" : 114944
        },
        {
            "buffer" : 0,
            "byteLength" : 27264,
            "byteOffset" : 126464
        },
        {
            "buffer" : 0,
            "byteLength" : 27264,
            "byteOffset" : 153728
        },
        {
            "buffer" : 0,
            "byteLength" : 18176,
            "byteOffset" : 180992
        },
        {
            "buffer" : 0,
            "byteLength" : 6816,
            "byteOffset" : 199168
        },
        {
            "buffer" : 0,
            "byteLength" : 3720,
            "byteOffset" : 205984
        },
        {
            "buffer" : 0,
            "byteLength" : 3720,
            "byteOffset" : 209704
        },
        {
            "buffer" : 0,
            "byteLength" : 2480,
            "byteOffset" : 213424
        },
        {
            "buffer" : 0,
            "byteLength" : 1188,
            "byteOffset" : 215904
        },
        {
            "buffer" : 0,
            "byteLength" : 1056,
            "byteOffset" : 217092
        },
        {
            "buffer" : 0,
            "byteLength" : 1056,
            "byteOffset" : 218148
        },
        {
            "buffer" : 0,
            "byteLength" : 704,
            "byteOffset" : 219204
        },
        {
            "buffer" : 0,
            "byteLength" : 312,
            "byteOffset" : 219908
        },
        {
            "buffer" : 0,
            "byteLength" : 2760,
            "byteOffset" : 220220
        },
        {
            "buffer" : 0,
            "byteLength" : 2760,
            "byteOffset" : 222980
        },
        {
            "buffer" : 0,
            "byteLength" : 1840,
            "byteOffset" : 225740
        },
        {
            "buffer" : 0,
            "byteLength" : 714,
            "byteOffset" : 227580
        },
        {
            "buffer" : 0,
            "byteLength" : 1776,
            "byteOffset" : 228296
        },
        {
            "buffer" : 0,
            "byteLength" : 1776,
            "byteOffset" : 230072
        },
        {
            "buffer" : 0,
            "byteLength" : 1184,
            "byteOffset" : 231848
        },
        {
            "buffer" : 0,
            "byteLength" : 600,
            "byteOffset" : 233032
        },
        {
            "buffer" : 0,
            "byteLength" : 1128,
            "byteOffset" : 233632
        },
        {
            "buffer" : 0,
            "byteLength" : 1128,
            "byteOffset" : 234760
        },
        {
            "buffer" : 0,
            "byteLength" : 752,
            "byteOffset" : 235888
        },
        {
            "buffer" : 0,
            "byteLength" : 312,
            "byteOffset" : 236640
        },
        {
            "buffer" : 0,
            "byteLength" : 1608,
            "byteOffset" : 236952
        },
        {
            "buffer" : 0,
            "byteLength" : 1608,
            "byteOffset" : 238560
        },
        {
            "buffer" : 0,
            "byteLength" : 1072,
            "byteOffset" : 240168
        },
        {
            "buffer" : 0,
            "byteLength" : 408,
            "byteOffset" : 241240
        }
    ],
    "buffers" : [
        {
            "byteLength" : 241648,
            "uri" : "data:application/octet-stream;base64,"
        }
    ]
}
